<?xml version="1.0" encoding="UTF-8" standalone="no"?>
<svg
   xmlns:dc="http://purl.org/dc/elements/1.1/"
   xmlns:cc="http://creativecommons.org/ns#"
   xmlns:rdf="http://www.w3.org/1999/02/22-rdf-syntax-ns#"
   xmlns:svg="http://www.w3.org/2000/svg"
   xmlns="http://www.w3.org/2000/svg"
   xmlns:xlink="http://www.w3.org/1999/xlink"
   xmlns:sodipodi="http://sodipodi.sourceforge.net/DTD/sodipodi-0.dtd"
   xmlns:inkscape="http://www.inkscape.org/namespaces/inkscape"
   inkscape:export-ydpi="200"
   inkscape:export-xdpi="200"
   inkscape:export-filename="/Users/jonathanloov/Documents/Programmering/Rust/rakoune/rakoune_logo.png"
   width="240"
   height="240"
   version="1.1"
   id="svg946"
   sodipodi:docname="rakoune_logo.svg"
   inkscape:version="1.0 (4035a4f, 2020-05-01)">
  <metadata
     id="metadata950">
    <rdf:RDF>
      <cc:Work
         rdf:about="">
        <dc:format>image/svg+xml</dc:format>
        <dc:type
           rdf:resource="http://purl.org/dc/dcmitype/StillImage" />
        <dc:title />
      </cc:Work>
    </rdf:RDF>
  </metadata>
  <sodipodi:namedview
     pagecolor="#ffffff"
     bordercolor="#666666"
     borderopacity="1"
     objecttolerance="10"
     gridtolerance="10"
     guidetolerance="10"
     inkscape:pageopacity="0"
     inkscape:pageshadow="2"
     inkscape:window-width="1920"
     inkscape:window-height="1035"
     id="namedview948"
     showgrid="false"
     showguides="true"
     inkscape:guide-bbox="true"
     inkscape:zoom="1.9710602"
     inkscape:cx="-80.237957"
     inkscape:cy="145.67283"
     inkscape:window-x="0"
     inkscape:window-y="23"
     inkscape:window-maximized="0"
     inkscape:current-layer="layer2"
     inkscape:document-rotation="0" />
  <defs
     id="defs924">
    <inkscape:path-effect
       fuse_tolerance="0"
       hide_knot="false"
       vertical_pattern="false"
       prop_units="false"
       tang_offset="0"
       normal_offset="0"
       spacing="-5"
       scale_y_rel="false"
       prop_scale="1"
       copytype="repeated"
       pattern="m 10.146824,219.67873 v 22.06935 c 0,0 4.686418,-8.63129 12.429859,-11.03467 -7.892377,-3.02921 -12.429859,-11.03468 -12.429859,-11.03468 z"
       lpeversion="1"
       is_visible="true"
       id="path-effect3075"
       effect="skeletal" />
    <inkscape:path-effect
       effect="skeletal"
       id="path-effect3053"
       is_visible="true"
       lpeversion="1"
       pattern="m 10.146824,219.67873 v 22.06935 c 0,0 4.686418,-8.63129 12.429859,-11.03467 -7.892377,-3.02921 -12.429859,-11.03468 -12.429859,-11.03468 z"
       copytype="repeated"
       prop_scale="1.2"
       scale_y_rel="false"
       spacing="-5"
       normal_offset="0"
       tang_offset="0"
       prop_units="false"
       vertical_pattern="false"
       hide_knot="false"
       fuse_tolerance="0" />
    <linearGradient
       gradientUnits="userSpaceOnUse"
       gradientTransform="matrix(1.1146408,0,0,0.89714998,126,120)"
       y2="84.266852"
       x2="46.221169"
       y1="-4.0127069"
       x1="-6.7465671"
       id="leg">
      <stop
         style="stop-color:#197a00;stop-opacity:1"
         id="stop1253"
         stop-color="rgb(60, 80, 130)"
         offset="0%" />
      <stop
         style="stop-color:#269309;stop-opacity:1"
         id="stop1255"
         stop-color="rgb(20, 80, 130)"
         offset="40%" />
      <stop
         style="stop-color:#38b218;stop-opacity:1"
         id="stop1257"
         stop-color="rgb(20, 115, 140)"
         offset="80%" />
      <stop
         style="stop-color:#58bf3d;stop-opacity:1"
         id="stop1259"
         stop-color="rgb(50, 120, 150)"
         offset="100%" />
    </linearGradient>
    <linearGradient
       gradientUnits="userSpaceOnUse"
       gradientTransform="matrix(0.57526972,0,0,1.738315,126,120)"
       y2="40.84415"
       x2="-74.226051"
       y1="-39.118341"
       x1="-82.222302"
       id="linearGradient1202">
      <stop
         id="stop1192"
         stop-color="rgb(255, 130, 100)"
         offset="0%"
         style="stop-color:#287f63;stop-opacity:1" />
      <stop
         id="stop1200"
         stop-color="rgb(220, 95, 75)"
         offset="100%"
         style="stop-color:#c8d75e;stop-opacity:1" />
    </linearGradient>
    <linearGradient
       id="linearGradient1188"
       x1="-30.447119"
       y1="52.745884"
       x2="99.632462"
       y2="-22.631491"
       gradientTransform="matrix(0.91914503,0,0,1.0879676,126,120)"
       gradientUnits="userSpaceOnUse">
      <stop
         style="stop-color:#a0c05e;stop-opacity:1"
         offset="0%"
         stop-color="rgb(200, 75, 65)"
         id="stop1180" />
      <stop
         style="stop-color:#c4d75a;stop-opacity:1"
         offset="0.76933473"
         stop-color="rgb(250, 100, 77)"
         id="stop1182" />
      <stop
         style="stop-color:#c3d659;stop-opacity:0"
         offset="100%"
         stop-color="rgb(250, 150, 97)"
         id="stop1186" />
    </linearGradient>
    <linearGradient
       id="linearGradient1162"
       x1="-30.447119"
       y1="52.745884"
       x2="99.632462"
       y2="-22.631491"
       gradientTransform="matrix(0.91914503,0,0,1.0879676,126,120)"
       gradientUnits="userSpaceOnUse">
      <stop
         style="stop-color:#d3563f;stop-opacity:1"
         offset="0%"
         stop-color="rgb(200, 75, 65)"
         id="stop1154" />
      <stop
         style="stop-color:#c84b37;stop-opacity:1"
         offset="50%"
         stop-color="rgb(250, 100, 77)"
         id="stop1156" />
      <stop
         id="stop1158"
         stop-color="rgb(250, 100, 77)"
         offset="0.64669132"
         style="stop-color:#db6847;stop-opacity:1" />
      <stop
         style="stop-color:#fa9661;stop-opacity:0"
         offset="100%"
         stop-color="rgb(250, 150, 97)"
         id="stop1160" />
    </linearGradient>
    <linearGradient
       gradientUnits="userSpaceOnUse"
       gradientTransform="matrix(0.91914503,0,0,1.0879676,126,120)"
       y2="-22.631491"
       x2="99.632462"
       y1="52.745884"
       x1="-30.447119"
       id="linearGradient1134">
      <stop
         id="stop1128"
         stop-color="rgb(200, 75, 65)"
         offset="0%"
         style="stop-color:#c2d559;stop-opacity:1" />
      <stop
         style="stop-color:#cdb912;stop-opacity:1"
         offset="0.69900137"
         stop-color="rgb(250, 100, 77)"
         id="stop1136" />
      <stop
         id="stop1132"
         stop-color="rgb(250, 150, 97)"
         offset="100%"
         style="stop-color:#cabd1c;stop-opacity:0" />
    </linearGradient>
    <linearGradient
       id="gtl"
       x1="-53.177788"
       y1="-52.163105"
       x2="10.000008"
       y2="10.000008"
       gradientUnits="userSpaceOnUse">
      <stop
         offset="0%"
         stop-color="#ffa"
         id="stop833"
         style="stop-color:#ea613d;stop-opacity:1" />
      <stop
         offset="100%"
         stop-color="#8b6"
         id="stop837"
         style="stop-color:#eb9127;stop-opacity:1" />
    </linearGradient>
    <linearGradient
       id="gtr"
       x1="-10"
       y1="-110"
       x2="110.00001"
       y2="10.000008"
       gradientUnits="userSpaceOnUse">
      <stop
         offset="0%"
         stop-color="#ac7"
         id="stop840"
         style="stop-color:#dc4f30;stop-opacity:1" />
      <stop
         offset="100%"
         stop-color="#685"
         id="stop844"
         style="stop-color:#a36b51;stop-opacity:1" />
    </linearGradient>
    <linearGradient
       id="gbl"
       x1="-110"
       y1="-10"
       x2="10.000008"
       y2="110.00001"
       gradientUnits="userSpaceOnUse">
      <stop
         offset="0%"
         stop-color="#8a7"
         id="stop847"
         style="stop-color:#eb9127;stop-opacity:1" />
      <stop
         offset="50%"
         stop-color="#ba5"
         id="stop849"
         style="stop-color:#f3ad19;stop-opacity:1" />
      <stop
         offset="100%"
         stop-color="#226a3a"
         id="stop851"
         style="stop-color:#eb9127;stop-opacity:1" />
    </linearGradient>
    <linearGradient
       id="gbr"
       x1="-10"
       y1="-10"
       x2="110.00001"
       y2="110.00001"
       gradientUnits="userSpaceOnUse">
      <stop
         offset="0%"
         stop-color="#798"
         id="stop854"
         style="stop-color:#532c38;stop-opacity:1" />
      <stop
         offset="100%"
         stop-color="#232"
         id="stop858"
         style="stop-color:#a36b51;stop-opacity:1" />
    </linearGradient>
    <linearGradient
       id="grad2"
       x1="100%"
       y1="100%"
       x2="0%"
       y2="0%">
      <stop
         offset="0%"
         stop-color="rgb(178, 255, 160)"
         id="stop861" />
      <stop
         offset="25%"
         stop-color="rgb(178, 245, 118)"
         id="stop863" />
      <stop
         offset="50%"
         stop-color="rgb(138, 235, 118)"
         id="stop865" />
      <stop
         offset="100%"
         stop-color="rgb(108, 185, 88)"
         id="stop867" />
    </linearGradient>
    <linearGradient
       id="leg-yellow"
       x1="-6.7465671"
       y1="-4.0127069"
       x2="46.221169"
       y2="84.266852"
       gradientTransform="matrix(1.1146408,0,0,0.89714998,126,120)"
       gradientUnits="userSpaceOnUse">
      <stop
         offset="0%"
         stop-color="rgb(60, 80, 130)"
         id="stop870"
         style="stop-color:#918c00;stop-opacity:1" />
      <stop
         offset="40%"
         stop-color="rgb(20, 80, 130)"
         id="stop872"
         style="stop-color:#afaa0b;stop-opacity:1" />
      <stop
         offset="80%"
         stop-color="rgb(20, 115, 140)"
         id="stop874"
         style="stop-color:#d4ce1c;stop-opacity:1" />
      <stop
         offset="100%"
         stop-color="rgb(50, 120, 150)"
         id="stop876"
         style="stop-color:#e3de48;stop-opacity:1" />
    </linearGradient>
    <linearGradient
       id="grad4"
       x1="-30.447119"
       y1="52.745884"
       x2="99.632462"
       y2="-22.631491"
       gradientTransform="matrix(0.91914503,0,0,1.0879676,126,120)"
       gradientUnits="userSpaceOnUse">
      <stop
         offset="0%"
         stop-color="rgb(200, 75, 65)"
         id="stop879"
         style="stop-color:#e03135;stop-opacity:1" />
      <stop
         offset="50%"
         stop-color="rgb(250, 100, 77)"
         id="stop881"
         style="stop-color:#e85d2e;stop-opacity:1" />
      <stop
         offset="100%"
         stop-color="rgb(250, 150, 97)"
         id="stop883"
         style="stop-color:#e9d526;stop-opacity:1" />
    </linearGradient>
    <linearGradient
       id="grad5"
       x1="-82.222302"
       y1="-39.118341"
       x2="-74.226051"
       y2="40.84415"
       gradientTransform="matrix(0.57526972,0,0,1.738315,126,120)"
       gradientUnits="userSpaceOnUse">
      <stop
         offset="0%"
         stop-color="rgb(255, 130, 100)"
         id="stop886" />
      <stop
         offset="20%"
         stop-color="rgb(235, 90, 65)"
         id="stop888" />
      <stop
         offset="50%"
         stop-color="rgb(220, 95, 70)"
         id="stop890" />
      <stop
         offset="80%"
         stop-color="rgb(200, 75, 55)"
         id="stop892" />
      <stop
         offset="100%"
         stop-color="rgb(220, 95, 75)"
         id="stop894" />
    </linearGradient>
    <filter
       id="blur2">
      <feOffset
         result="offOut"
         in="SourceGraphic"
         dx="2"
         dy="3"
         id="feOffset897" />
      <feColorMatrix
         result="matrixOut"
         in="offOut"
         type="matrix"
         values="0.3 0 0 0 0 0 0.3 0 0 0 0 0 0.3 0 0 0 0 0 0.1 0"
         id="feColorMatrix899" />
      <feGaussianBlur
         result="blurOut"
         in="matrixOut"
         stdDeviation="4"
         id="feGaussianBlur901" />
      <feBlend
         in="SourceGraphic"
         in2="blurOut"
         mode="normal"
         id="feBlend903" />
    </filter>
    <filter
       id="blur3">
      <feOffset
         result="offOut"
         in="SourceGraphic"
         dx="2"
         dy="3"
         id="feOffset906" />
      <feColorMatrix
         result="matrixOut"
         in="offOut"
         type="matrix"
         values="0.0 0 0 0 0 0 0.0 0 0 0 0 0 0.0 0 0 0 0 0 0.3 0"
         id="feColorMatrix908" />
      <feGaussianBlur
         result="blurOut"
         in="matrixOut"
         stdDeviation="4"
         id="feGaussianBlur910" />
      <feBlend
         in="SourceGraphic"
         in2="blurOut"
         mode="normal"
         id="feBlend912" />
    </filter>
    <filter
       id="blur4">
      <feOffset
         result="offOut"
         in="SourceGraphic"
         dx="4"
         dy="4"
         id="feOffset915" />
      <feColorMatrix
         result="matrixOut"
         in="offOut"
         type="matrix"
         values="0.1 0 0 0 0 0 0.1 0 0 0 0 0 0.1 0 0 0 0 0 0.25 0"
         id="feColorMatrix917" />
      <feGaussianBlur
         result="blurOut"
         in="matrixOut"
         stdDeviation="6"
         id="feGaussianBlur919" />
      <feBlend
         in="SourceGraphic"
         in2="blurOut"
         mode="normal"
         id="feBlend921" />
    </filter>
    <linearGradient
       inkscape:collect="always"
       xlink:href="#grad5"
       id="linearGradient1076"
       gradientUnits="userSpaceOnUse"
       x1="47.884796"
       y1="104.93073"
       x2="169.26726"
       y2="104.93073" />
    <linearGradient
       inkscape:collect="always"
       xlink:href="#linearGradient1202"
       id="linearGradient1078"
       gradientUnits="userSpaceOnUse"
       x1="64.88073"
       y1="191.17874"
       x2="150.49564"
       y2="86.159111"
       gradientTransform="translate(-6)" />
    <linearGradient
       inkscape:collect="always"
       xlink:href="#linearGradient1134"
       id="linearGradient1121"
       gradientUnits="userSpaceOnUse"
       x1="108.42244"
       y1="14.587457"
       x2="139.44011"
       y2="70.609993"
       gradientTransform="translate(-6)" />
    <linearGradient
       inkscape:collect="always"
       xlink:href="#grad4"
       id="linearGradient1125"
       gradientUnits="userSpaceOnUse"
       x1="98.618912"
       y1="136.13222"
       x2="173.57967"
       y2="56.986992"
       gradientTransform="translate(-6)" />
    <linearGradient
       inkscape:collect="always"
       xlink:href="#linearGradient1188"
       id="linearGradient1177"
       gradientUnits="userSpaceOnUse"
       x1="64"
       y1="58"
       x2="108.70492"
       y2="29.970236"
       gradientTransform="translate(-6)" />
  </defs>
  <!-- Logo part -->
  <g
     inkscape:groupmode="layer"
     id="layer2"
     inkscape:label="background"
     style="display:inline">
    <polygon
       style="fill:url(#gtr)"
       id="polygon926"
       points="0,0 0,-100 100,0 "
       filter="url(#blur2)"
       fill="url(#gtr)"
       transform="translate(120,120)" />
    <polygon
       style="fill:url(#gtl)"
       id="polygon928"
       points="0,0 0,-100 -100,0 "
       filter="url(#blur2)"
       fill="url(#gtl)"
       transform="translate(120,120)" />
    <polygon
       style="fill:url(#gbr)"
       id="polygon930"
       points="0,0 0,100 100,0 "
       filter="url(#blur2)"
       fill="url(#gbr)"
       transform="translate(120,120)" />
    <polygon
       style="fill:url(#gbl)"
       id="polygon932"
       points="0,0 0,100 -100,0 "
       filter="url(#blur2)"
       fill="url(#gbl)"
       transform="translate(120,120)" />
  </g>
  <g
     inkscape:groupmode="layer"
     id="layer1"
     inkscape:label="foreground"
     style="display:inline;opacity:0.99356913">
    <path
       d="m 113,154 28,-31 54,66 h -44 z"
       style="fill:url(#leg-yellow);filter:url(#blur3)"
       id="polygon934" />
    <g
       id="g1089"
       style="filter:url(#blur4)"
       transform="translate(6)">
      <path
         id="polygon936"
         style="fill:url(#linearGradient1125);fill-opacity:1;stroke:none"
         d="m 142.35938,27.640625 -21.42969,21.429687 c 1.19557,0.572132 2.27759,1.372118 3.11328,2.478516 2.87658,3.808386 5.14879,13.688693 4.55859,19.814453 -0.45675,4.066193 -2.37538,7.979686 -4.2832,11.47461 -1.90782,3.494924 -3.40012,4.948819 -6.97266,9.324218 C 113.77316,96.537508 100,110 100,110 l -3,58 c 0,0 38.0931,-45.41559 43.67383,-52.16602 5.58073,-6.75043 10.8682,-17.342533 13.86914,-25.775386 2.0897,-5.879577 3.51249,-10.170088 4.18945,-15.46875 0.74715,-5.848064 0.54265,-12.376788 -0.97851,-19.763672 -1.52115,-7.386885 -3.09478,-14.146897 -8.02149,-19.960938 -2.53869,-2.995922 -4.7858,-5.316114 -7.37304,-7.224609 z" />
      <path
         sodipodi:nodetypes="ccccc"
         d="M 96,191 104,56 58,58 V 191 Z"
         style="fill:url(#linearGradient1078);fill-opacity:1"
         id="polygon938" />
      <path
         id="path1116"
         style="fill:url(#linearGradient1121);fill-opacity:1;stroke:none"
         d="m 115.22852,20.150391 c -1.55866,-0.01578 -3.10519,0.04306 -4.63868,0.136718 -0.5546,0.03387 -1.11336,0.05557 -1.66211,0.103516 -0.94286,0.08239 -1.86371,0.188772 -2.77148,0.308594 -0.34163,0.04496 -0.67483,0.09845 -1.01172,0.148437 -0.54345,0.08092 -1.08388,0.166103 -1.61523,0.259766 -0.4093,0.07185 -0.81441,0.147479 -1.2168,0.226562 -0.43263,0.0854 -0.86032,0.176014 -1.28516,0.269532 -0.45763,0.100293 -0.91437,0.201234 -1.36328,0.310546 -0.28913,0.07071 -0.57182,0.148328 -0.85742,0.222657 -2.69567,0.698686 -5.23876,1.552177 -7.65625,2.527343 -1.19793,0.483221 -2.37609,0.985543 -3.51758,1.521485 -6.13607,2.880957 -9.88071,4.559647 -15.55468,9.050781 C 66.40415,39.727462 58.33552,51.734968 58,58 L 81,61 103.66211,56.074219 104,56 c 0.0277,-4.006723 4.5527,-7.194931 7.97461,-7.859375 0.38724,-0.07519 0.81217,-0.134026 1.25195,-0.181641 0.1716,-0.01843 0.35525,-0.02762 0.53321,-0.04102 0.28617,-0.02177 0.57536,-0.03956 0.875,-0.04687 0.21176,-0.0049 0.42765,-0.0012 0.64453,0.002 0.26703,0.0035 0.53799,0.01444 0.81054,0.03125 0.25601,0.01618 0.51274,0.03548 0.77149,0.06445 0.25383,0.02807 0.50719,0.07196 0.76172,0.113281 0.29177,0.04782 0.58504,0.08768 0.875,0.154297 0.004,8.91e-4 0.008,0.0011 0.0117,0.002 0.005,0.0012 0.0104,0.0027 0.0156,0.0039 1.15469,0.267807 2.28145,0.690794 3.29102,1.314453 0.20129,0.124347 0.3987,0.255822 0.58984,0.396484 0.001,0.0011 0.002,0.0028 0.004,0.0039 0.60481,0.445675 1.1607,0.966753 1.63281,1.591797 2.87658,3.808386 5.14879,13.688693 4.55859,19.814453 -0.45675,4.066193 -2.37538,7.979686 -4.2832,11.47461 -1.90782,3.494924 -3.40012,4.948819 -6.97266,9.324218 -1.413,1.730547 -4.46868,4.903509 -7.58984,8.082033 l 47.54687,-47.546876 c -1.41071,-6.55708 -3.12207,-12.582639 -7.57031,-17.832032 -4.92671,-5.814041 -8.72603,-9.110326 -16.1289,-11.714843 -5.55216,-1.953388 -12.00793,-2.935535 -18.375,-3 z" />
      <path
         id="path1172"
         style="fill:url(#linearGradient1177);fill-opacity:1;stroke:none"
         d="m 115.22852,20.150391 c -1.55866,-0.01578 -3.10519,0.04306 -4.63868,0.136718 -0.5546,0.03387 -1.11336,0.05557 -1.66211,0.103516 -0.94286,0.08239 -1.86371,0.188772 -2.77148,0.308594 -0.34163,0.04496 -0.67483,0.09845 -1.01172,0.148437 -0.54345,0.08092 -1.08388,0.166103 -1.61523,0.259766 -0.4093,0.07185 -0.81441,0.147479 -1.2168,0.226562 -0.43263,0.0854 -0.86032,0.176014 -1.28516,0.269532 -0.45763,0.100293 -0.91437,0.201234 -1.363278,0.310546 -0.289128,0.07071 -0.571822,0.148328 -0.857421,0.222657 -2.695676,0.698686 -5.238757,1.552178 -7.65625,2.527343 -1.197932,0.483222 -2.376089,0.985543 -3.517579,1.521485 -6.136077,2.880957 -9.880708,4.559647 -15.554687,9.050781 C 66.404146,39.727462 58.335522,51.734968 58,58 L 81,61 103.66211,56.074219 104,56 c 0.0277,-4.006723 4.5527,-7.194931 7.97461,-7.859375 0.38724,-0.07519 0.81217,-0.134026 1.25195,-0.181641 0.1716,-0.01843 0.35525,-0.02762 0.53321,-0.04102 0.28617,-0.02177 0.57536,-0.03956 0.875,-0.04687 0.21176,-0.0049 0.42765,-0.0012 0.64453,0.002 0.26703,0.0035 0.53799,0.01444 0.81054,0.03125 0.25601,0.01618 0.51274,0.03548 0.77149,0.06445 0.25383,0.02807 0.50719,0.07196 0.76172,0.113281 0.16344,0.02679 0.3267,0.05804 0.49023,0.08594 l 6.52734,-27.238281 c -3.07902,-0.489511 -6.25579,-0.74734 -9.4121,-0.779297 z" />
    </g>
  </g>
</svg>
